<?xml version="1.0" encoding="utf-8"?>
<svg version="1.1" xmlns:xlink="http://www.w3.org/1999/xlink" width="24px" height="22px" xmlns="http://www.w3.org/2000/svg">
  <g transform="matrix(1 0 0 1 -143 -213 )">
    <path d="M 4.36363636363636 16  L 6.54545454545455 16  L 6.54545454545455 18  L 4.36363636363636 18  L 4.36363636363636 16  Z M 4.36363636363636 4  L 6.54545454545455 4  L 6.54545454545455 6  L 4.36363636363636 6  L 4.36363636363636 4  Z M 17.4545454545455 4  L 19.6363636363636 4  L 19.6363636363636 6  L 17.4545454545455 6  L 17.4545454545455 4  Z M 2.18181818181818 14  L 2.18181818181818 19.984375  L 8.72727272727273 19.984375  L 8.72727272727273 14  L 2.18181818181818 14  Z M 2.18181818181818 2  L 2.18181818181818 8  L 8.72727272727273 8  L 8.72727272727273 2  L 2.18181818181818 2  Z M 15.2727272727273 2  L 15.2727272727273 8  L 21.8181818181818 8  L 21.8181818181818 2  L 15.2727272727273 2  Z M 0 12  L 11 12  L 11 22  L 0 22  L 0 12  Z M 17.4545454545455 20  L 19.6363636363636 20  L 19.6363636363636 22  L 17.4545454545455 22  L 17.4545454545455 20  Z M 21.8181818181818 20  L 24 20  L 24 22  L 21.8181818181818 22  L 21.8181818181818 20  Z M 21.8181818181818 12  L 24 12  L 24 18  L 17.4545454545455 18  L 17.4545454545455 16  L 15.2727272727273 16  L 15.2727272727273 22  L 13 22  L 13 12  L 19.6363636363636 12  L 19.6363636363636 14  L 21.8181818181818 14  L 21.8181818181818 12  Z M 0 0  L 11 0  L 11 10  L 0 10  L 0 0  Z M 13 0  L 24 0  L 24 10  L 13 10  L 13 0  Z " fill-rule="nonzero" fill="#fffbfb" stroke="none" transform="matrix(1 0 0 1 143 213 )" />
  </g>
</svg>